<svg width="68" height="60" viewBox="0 0 68 60" fill="none" xmlns="http://www.w3.org/2000/svg">
<path d="M53.6381 0H14.8049C7.14645 0 0.935913 5.5815 0.935913 12.4643V47.3642C0.935913 54.247 7.14645 59.8285 14.8049 59.8285H53.6381C61.2993 59.8285 67.5071 54.247 67.5071 47.3642V12.4643C67.5071 5.5815 61.2993 0 53.6381 0ZM23.1263 47.3642H14.8049V19.9428H23.1263V47.3642ZM18.9656 16.7819C16.2861 16.7819 14.1115 14.8125 14.1115 12.3845C14.1115 9.95646 16.2861 7.9871 18.9656 7.9871C21.6451 7.9871 23.8198 9.95646 23.8198 12.3845C23.8198 14.8125 21.6479 16.7819 18.9656 16.7819ZM56.4119 47.3642H48.0905V33.3943C48.0905 24.9983 36.9953 25.634 36.9953 33.3943V47.3642H28.6739V19.9428H36.9953V24.3427C40.8675 17.8962 56.4119 17.4201 56.4119 30.515V47.3642Z" fill="#979595"/>
</svg>
