<svg width="67" height="60" viewBox="0 0 67 60" fill="none" xmlns="http://www.w3.org/2000/svg">
<path fill-rule="evenodd" clip-rule="evenodd" d="M33.2839 0C14.9026 0 0 13.7331 0 30.6733C0 44.2247 9.53505 55.7211 22.7631 59.7745C24.4291 60.0584 25.0351 59.1139 25.0351 58.2984C25.0351 57.5717 25.006 55.6441 24.9915 53.0818C15.7322 54.937 13.7785 48.9694 13.7785 48.9694C12.2645 45.4264 10.0821 44.4843 10.0821 44.4843C7.05997 42.5826 10.3117 42.6196 10.3117 42.6196C13.6522 42.8374 15.4104 45.7796 15.4104 45.7796C18.3788 50.4668 23.2018 49.1102 25.0974 48.33C25.3986 46.3442 26.2606 44.9955 27.2106 44.2271C19.8203 43.4532 12.0502 40.8217 12.0502 29.069C12.0502 25.7194 13.3467 22.981 15.4753 20.8363C15.1347 20.064 13.9902 16.9457 15.8021 12.7209C15.8021 12.7209 18.5964 11.8967 24.9565 15.8675C27.61 15.1841 30.4581 14.8428 33.289 14.8325C36.1158 14.8436 38.9647 15.1841 41.6215 15.8675C47.9774 11.8967 50.7674 12.7209 50.7674 12.7209C52.5836 16.9457 51.4399 20.064 51.0986 20.8363C53.2322 22.981 54.5193 25.7194 54.5193 29.069C54.5193 40.8493 46.7381 43.4446 39.3231 44.2011C40.5163 45.1488 41.5814 47.0245 41.5814 49.8864C41.5814 53.9846 41.5413 57.2917 41.5413 58.2976C41.5413 59.1194 42.1396 60.075 43.8295 59.7706C57.043 55.7085 66.5712 44.2208 66.5712 30.6733C66.5712 13.7331 51.6687 0 33.2839 0Z" fill="#979595"/>
</svg>
