<svg width="67" height="60" viewBox="0 0 67 60" fill="none" xmlns="http://www.w3.org/2000/svg">
<path d="M44.3808 29.9142C44.3808 27.1617 43.2973 24.8117 41.1303 22.8641C38.9632 20.9166 36.3483 19.9428 33.2856 19.9428C30.2229 19.9428 27.608 20.9166 25.4409 22.8641C23.2739 24.8117 22.1904 27.1617 22.1904 29.9142C22.1904 32.6668 23.2739 35.0168 25.4409 36.9643C27.608 38.9119 30.2229 39.8857 33.2856 39.8857C36.3483 39.8857 38.9632 38.9119 41.1303 36.9643C43.2973 35.0168 44.3808 32.6668 44.3808 29.9142ZM50.3618 29.9142C50.3618 34.1729 48.7004 37.7953 45.3776 40.7815C42.0549 43.7677 38.0242 45.2609 33.2856 45.2609C28.547 45.2609 24.5163 43.7677 21.1936 40.7815C17.8708 37.7953 16.2094 34.1729 16.2094 29.9142C16.2094 25.6556 17.8708 22.0332 21.1936 19.047C24.5163 16.0607 28.547 14.5676 33.2856 14.5676C38.0242 14.5676 42.0549 16.0607 45.3776 19.047C48.7004 22.0332 50.3618 25.6556 50.3618 29.9142ZM55.0426 13.9444C55.0426 14.9312 54.6525 15.7751 53.8724 16.4762C53.0923 17.1773 52.1532 17.5279 51.0553 17.5279C49.9573 17.5279 49.0182 17.1773 48.2381 16.4762C47.458 15.7751 47.0679 14.9312 47.0679 13.9444C47.0679 12.9576 47.458 12.1137 48.2381 11.4126C49.0182 10.7115 49.9573 10.3609 51.0553 10.3609C52.1532 10.3609 53.0923 10.7115 53.8724 11.4126C54.6525 12.1137 55.0426 12.9576 55.0426 13.9444ZM33.2856 5.37521C33.0833 5.37521 31.9782 5.36872 29.97 5.35574C27.9619 5.34276 26.4378 5.34276 25.3976 5.35574C24.3574 5.36872 22.9633 5.40767 21.2152 5.47259C19.4672 5.53751 17.9791 5.66735 16.7512 5.8621C15.5232 6.05685 14.4902 6.29705 13.6523 6.58269C12.2076 7.10203 10.9363 7.85508 9.83832 8.84184C8.74036 9.82859 7.90244 10.9712 7.32457 12.2695C7.00673 13.0226 6.73947 13.9509 6.52276 15.0545C6.30606 16.1581 6.16159 17.4954 6.08936 19.0664C6.01712 20.6374 5.97378 21.8904 5.95934 22.8252C5.94489 23.76 5.94489 25.1298 5.95934 26.9345C5.97378 28.7392 5.98101 29.7325 5.98101 29.9142C5.98101 30.096 5.97378 31.0893 5.95934 32.894C5.94489 34.6987 5.94489 36.0685 5.95934 37.0033C5.97378 37.9381 6.01712 39.191 6.08936 40.762C6.16159 42.3331 6.30606 43.6704 6.52276 44.774C6.73947 45.8776 7.00673 46.8059 7.32457 47.559C7.90244 48.8573 8.74036 49.9999 9.83832 50.9866C10.9363 51.9734 12.2076 52.7264 13.6523 53.2458C14.4902 53.5314 15.5232 53.7716 16.7512 53.9664C17.9791 54.1611 19.4672 54.291 21.2152 54.3559C22.9633 54.4208 24.3574 54.4598 25.3976 54.4727C26.4378 54.4857 27.9619 54.4857 29.97 54.4727C31.9782 54.4598 33.0833 54.4533 33.2856 54.4533C33.4879 54.4533 34.593 54.4598 36.6012 54.4727C38.6093 54.4857 40.1334 54.4857 41.1736 54.4727C42.2138 54.4598 43.6079 54.4208 45.356 54.3559C47.104 54.291 48.5921 54.1611 49.82 53.9664C51.048 53.7716 52.081 53.5314 52.9189 53.2458C54.3636 52.7264 55.6349 51.9734 56.7329 50.9866C57.8308 49.9999 58.6688 48.8573 59.2466 47.559C59.5645 46.8059 59.8317 45.8776 60.0484 44.774C60.2651 43.6704 60.4096 42.3331 60.4818 40.762C60.5541 39.191 60.5974 37.9381 60.6119 37.0033C60.6263 36.0685 60.6263 34.6987 60.6119 32.894C60.5974 31.0893 60.5902 30.096 60.5902 29.9142C60.5902 29.7325 60.5974 28.7392 60.6119 26.9345C60.6263 25.1298 60.6263 23.76 60.6119 22.8252C60.5974 21.8904 60.5541 20.6374 60.4818 19.0664C60.4096 17.4954 60.2651 16.1581 60.0484 15.0545C59.8317 13.9509 59.5645 13.0226 59.2466 12.2695C58.6688 10.9712 57.8308 9.82859 56.7329 8.84184C55.6349 7.85508 54.3636 7.10203 52.9189 6.58269C52.081 6.29705 51.048 6.05685 49.82 5.8621C48.5921 5.66735 47.104 5.53751 45.356 5.47259C43.6079 5.40767 42.2138 5.36872 41.1736 5.35574C40.1334 5.34276 38.6093 5.34276 36.6012 5.35574C34.593 5.36872 33.4879 5.37521 33.2856 5.37521ZM66.5712 29.9142C66.5712 35.8607 66.499 39.9765 66.3545 42.2617C66.0656 47.6628 64.2741 51.8436 60.9803 54.8038C57.6864 57.7641 53.0345 59.3741 47.0246 59.6337C44.4819 59.7636 39.9023 59.8285 33.2856 59.8285C26.6689 59.8285 22.0893 59.7636 19.5466 59.6337C13.5367 59.3741 8.88483 57.7641 5.59094 54.8038C2.29705 51.8436 0.505641 47.6628 0.216703 42.2617C0.0722344 39.9765 0 35.8607 0 29.9142C0 23.9677 0.0722344 19.8519 0.216703 17.5668C0.505641 12.1656 2.29705 7.98492 5.59094 5.02466C8.88483 2.06439 13.5367 0.454426 19.5466 0.194754C22.0893 0.0649181 26.6689 0 33.2856 0C39.9023 0 44.4819 0.0649181 47.0246 0.194754C53.0345 0.454426 57.6864 2.06439 60.9803 5.02466C64.2741 7.98492 66.0656 12.1656 66.3545 17.5668C66.499 19.8519 66.5712 23.9677 66.5712 29.9142Z" fill="#979595"/>
</svg>
